<svg xmlns="http://www.w3.org/2000/svg" xmlns:xlink="http://www.w3.org/1999/xlink" contentStyleType="text/css" height="791px" preserveAspectRatio="none" style="width:1137px;height:791px;background:#FFFFFF;" version="1.1" viewBox="0 0 1137 791" width="1137px" zoomAndPan="magnify"><defs/><g><!--cluster Songs--><g id="cluster_Songs"><polygon fill="none" points="16,60,66,60,73,82.2969,204,82.2969,204,241,16,241,16,60" style="stroke:#000000;stroke-width:1.5;"/><line style="stroke:#000000;stroke-width:1.5;" x1="16" x2="73" y1="82.2969" y2="82.2969"/><text fill="#000000" font-family="sans-serif" font-size="14" lengthAdjust="spacing" textLength="44" x="20" y="74.9951">Songs</text></g><!--cluster Playlists--><g id="cluster_Playlists"><polygon fill="none" points="692,6,752,6,759,28.2969,869,28.2969,869,137,692,137,692,6" style="stroke:#000000;stroke-width:1.5;"/><line style="stroke:#000000;stroke-width:1.5;" x1="692" x2="759" y1="28.2969" y2="28.2969"/><text fill="#000000" font-family="sans-serif" font-size="14" lengthAdjust="spacing" textLength="54" x="696" y="20.9951">Playlists</text></g><!--cluster Albums--><g id="cluster_Albums"><polygon fill="none" points="232,194,289,194,296,216.2969,405,216.2969,405,341,232,341,232,194" style="stroke:#000000;stroke-width:1.5;"/><line style="stroke:#000000;stroke-width:1.5;" x1="232" x2="296" y1="216.2969" y2="216.2969"/><text fill="#000000" font-family="sans-serif" font-size="14" lengthAdjust="spacing" textLength="51" x="236" y="208.9951">Albums</text></g><!--cluster Users--><g id="cluster_Users"><polygon fill="none" points="433,161,479,161,486,183.2969,868,183.2969,868,374,433,374,433,161" style="stroke:#000000;stroke-width:1.5;"/><line style="stroke:#000000;stroke-width:1.5;" x1="433" x2="486" y1="183.2969" y2="183.2969"/><text fill="#000000" font-family="sans-serif" font-size="14" lengthAdjust="spacing" textLength="40" x="437" y="175.9951">Users</text></g><!--cluster Plans--><g id="cluster_Plans"><polygon fill="none" points="437.5,619,480.5,619,487.5,641.2969,857.5,641.2969,857.5,784,437.5,784,437.5,619" style="stroke:#000000;stroke-width:1.5;"/><line style="stroke:#000000;stroke-width:1.5;" x1="437.5" x2="487.5" y1="641.2969" y2="641.2969"/><text fill="#000000" font-family="sans-serif" font-size="14" lengthAdjust="spacing" textLength="37" x="441.5" y="633.9951">Plans</text></g><!--cluster Subscriptions--><g id="cluster_Subscriptions"><polygon fill="none" points="663,398,763,398,770,420.2969,1120,420.2969,1120,595,663,595,663,398" style="stroke:#000000;stroke-width:1.5;"/><line style="stroke:#000000;stroke-width:1.5;" x1="663" x2="770" y1="420.2969" y2="420.2969"/><text fill="#000000" font-family="sans-serif" font-size="14" lengthAdjust="spacing" textLength="94" x="667" y="412.9951">Subscriptions</text></g><!--class Song--><g id="elem_Song"><rect codeLine="7" fill="#FEFECE" height="129.4844" id="Song" style="stroke:#A80036;stroke-width:1.0;" width="156" x="32" y="95.26"/><ellipse cx="87.75" cy="111.26" fill="#ADD1B2" rx="11" ry="11" style="stroke:#A80036;stroke-width:1.0;"/><path d="M90.7188,116.9006 Q90.1406,117.1975 89.5,117.3381 Q88.8594,117.4944 88.1563,117.4944 Q85.6563,117.4944 84.3281,115.8537 Q83.0156,114.1975 83.0156,111.0725 Q83.0156,107.9475 84.3281,106.2912 Q85.6563,104.635 88.1563,104.635 Q88.8594,104.635 89.5,104.7912 Q90.1563,104.9475 90.7188,105.2444 L90.7188,107.9631 Q90.0938,107.385 89.5,107.1194 Q88.9063,106.8381 88.2813,106.8381 Q86.9375,106.8381 86.25,107.9162 Q85.5625,108.9787 85.5625,111.0725 Q85.5625,113.1662 86.25,114.2444 Q86.9375,115.3069 88.2813,115.3069 Q88.9063,115.3069 89.5,115.0412 Q90.0938,114.76 90.7188,114.1819 L90.7188,116.9006 Z " fill="#000000"/><text fill="#000000" font-family="sans-serif" font-size="14" lengthAdjust="spacing" textLength="36" x="108.25" y="116.1067">Song</text><line style="stroke:#A80036;stroke-width:1.0;" x1="33" x2="187" y1="127.26" y2="127.26"/><rect fill="none" height="6" style="stroke:#C82930;stroke-width:1.0;" width="6" x="40" y="137.9084"/><text fill="#000000" font-family="sans-serif" font-size="14" lengthAdjust="spacing" textLength="83" x="52" y="144.2551">Guid songId</text><rect fill="none" height="6" style="stroke:#C82930;stroke-width:1.0;" width="6" x="40" y="154.2053"/><text fill="#000000" font-family="sans-serif" font-size="14" lengthAdjust="spacing" textLength="108" x="52" y="160.552">String songTitle</text><rect fill="none" height="6" style="stroke:#C82930;stroke-width:1.0;" width="6" x="40" y="170.5022"/><text fill="#000000" font-family="sans-serif" font-size="14" lengthAdjust="spacing" textLength="82" x="52" y="176.8489">Guid artistId</text><rect fill="none" height="6" style="stroke:#C82930;stroke-width:1.0;" width="6" x="40" y="186.7991"/><text fill="#000000" font-family="sans-serif" font-size="14" lengthAdjust="spacing" textLength="130" x="52" y="193.1457">TimeSpan duration</text><rect fill="none" height="6" style="stroke:#C82930;stroke-width:1.0;" width="6" x="40" y="203.0959"/><text fill="#000000" font-family="sans-serif" font-size="14" lengthAdjust="spacing" textLength="97" x="52" y="209.4426">Guid? albumId</text><line style="stroke:#A80036;stroke-width:1.0;" x1="33" x2="187" y1="216.7444" y2="216.7444"/></g><!--class Playlist--><g id="elem_Playlist"><rect codeLine="17" fill="#FEFECE" height="80.5938" id="Playlist" style="stroke:#A80036;stroke-width:1.0;" width="145" x="708" y="40.7"/><ellipse cx="753.25" cy="56.7" fill="#ADD1B2" rx="11" ry="11" style="stroke:#A80036;stroke-width:1.0;"/><path d="M756.2188,62.3406 Q755.6406,62.6375 755,62.7781 Q754.3594,62.9344 753.6563,62.9344 Q751.1563,62.9344 749.8281,61.2938 Q748.5156,59.6375 748.5156,56.5125 Q748.5156,53.3875 749.8281,51.7313 Q751.1563,50.075 753.6563,50.075 Q754.3594,50.075 755,50.2313 Q755.6563,50.3875 756.2188,50.6844 L756.2188,53.4031 Q755.5938,52.825 755,52.5594 Q754.4063,52.2781 753.7813,52.2781 Q752.4375,52.2781 751.75,53.3563 Q751.0625,54.4188 751.0625,56.5125 Q751.0625,58.6063 751.75,59.6844 Q752.4375,60.7469 753.7813,60.7469 Q754.4063,60.7469 755,60.4813 Q755.5938,60.2 756.2188,59.6219 L756.2188,62.3406 Z " fill="#000000"/><text fill="#000000" font-family="sans-serif" font-size="14" lengthAdjust="spacing" textLength="46" x="773.75" y="61.5467">Playlist</text><line style="stroke:#A80036;stroke-width:1.0;" x1="709" x2="852" y1="72.7" y2="72.7"/><rect fill="none" height="6" style="stroke:#C82930;stroke-width:1.0;" width="6" x="716" y="83.3484"/><text fill="#000000" font-family="sans-serif" font-size="14" lengthAdjust="spacing" textLength="94" x="728" y="89.6951">Guid playlistId</text><rect fill="none" height="6" style="stroke:#C82930;stroke-width:1.0;" width="6" x="716" y="99.6453"/><text fill="#000000" font-family="sans-serif" font-size="14" lengthAdjust="spacing" textLength="119" x="728" y="105.992">String playlistTitle</text><line style="stroke:#A80036;stroke-width:1.0;" x1="709" x2="852" y1="113.2938" y2="113.2938"/></g><!--class Album--><g id="elem_Album"><rect codeLine="24" fill="#FEFECE" height="96.8906" id="Album" style="stroke:#A80036;stroke-width:1.0;" width="141" x="248" y="228.55"/><ellipse cx="292.75" cy="244.55" fill="#ADD1B2" rx="11" ry="11" style="stroke:#A80036;stroke-width:1.0;"/><path d="M295.7188,250.1906 Q295.1406,250.4875 294.5,250.6281 Q293.8594,250.7844 293.1563,250.7844 Q290.6563,250.7844 289.3281,249.1437 Q288.0156,247.4875 288.0156,244.3625 Q288.0156,241.2375 289.3281,239.5812 Q290.6563,237.925 293.1563,237.925 Q293.8594,237.925 294.5,238.0812 Q295.1563,238.2375 295.7188,238.5344 L295.7188,241.2531 Q295.0938,240.675 294.5,240.4094 Q293.9063,240.1281 293.2813,240.1281 Q291.9375,240.1281 291.25,241.2062 Q290.5625,242.2687 290.5625,244.3625 Q290.5625,246.4562 291.25,247.5344 Q291.9375,248.5969 293.2813,248.5969 Q293.9063,248.5969 294.5,248.3312 Q295.0938,248.05 295.7188,247.4719 L295.7188,250.1906 Z " fill="#000000"/><text fill="#000000" font-family="sans-serif" font-size="14" lengthAdjust="spacing" textLength="43" x="313.25" y="249.3967">Album</text><line style="stroke:#A80036;stroke-width:1.0;" x1="249" x2="388" y1="260.55" y2="260.55"/><rect fill="none" height="6" style="stroke:#C82930;stroke-width:1.0;" width="6" x="256" y="271.1984"/><text fill="#000000" font-family="sans-serif" font-size="14" lengthAdjust="spacing" textLength="90" x="268" y="277.5451">Guid albumId</text><rect fill="none" height="6" style="stroke:#C82930;stroke-width:1.0;" width="6" x="256" y="287.4953"/><text fill="#000000" font-family="sans-serif" font-size="14" lengthAdjust="spacing" textLength="115" x="268" y="293.842">String albumTitle</text><rect fill="none" height="6" style="stroke:#C82930;stroke-width:1.0;" width="6" x="256" y="303.7922"/><text fill="#000000" font-family="sans-serif" font-size="14" lengthAdjust="spacing" textLength="82" x="268" y="310.1389">Guid artistId</text><line style="stroke:#A80036;stroke-width:1.0;" x1="249" x2="388" y1="317.4406" y2="317.4406"/></g><!--class User--><g id="elem_User"><rect codeLine="32" fill="#FEFECE" height="162.0781" id="User" style="stroke:#A80036;stroke-width:1.0;" width="170" x="449" y="195.96"/><ellipse cx="513.75" cy="211.96" fill="#ADD1B2" rx="11" ry="11" style="stroke:#A80036;stroke-width:1.0;"/><path d="M516.7188,217.6006 Q516.1406,217.8975 515.5,218.0381 Q514.8594,218.1944 514.1563,218.1944 Q511.6563,218.1944 510.3281,216.5538 Q509.0156,214.8975 509.0156,211.7725 Q509.0156,208.6475 510.3281,206.9913 Q511.6563,205.335 514.1563,205.335 Q514.8594,205.335 515.5,205.4913 Q516.1563,205.6475 516.7188,205.9444 L516.7188,208.6631 Q516.0938,208.085 515.5,207.8194 Q514.9063,207.5381 514.2813,207.5381 Q512.9375,207.5381 512.25,208.6163 Q511.5625,209.6788 511.5625,211.7725 Q511.5625,213.8663 512.25,214.9444 Q512.9375,216.0069 514.2813,216.0069 Q514.9063,216.0069 515.5,215.7413 Q516.0938,215.46 516.7188,214.8819 L516.7188,217.6006 Z " fill="#000000"/><text fill="#000000" font-family="sans-serif" font-size="14" lengthAdjust="spacing" textLength="32" x="534.25" y="216.8067">User</text><line style="stroke:#A80036;stroke-width:1.0;" x1="450" x2="618" y1="227.96" y2="227.96"/><rect fill="none" height="6" style="stroke:#C82930;stroke-width:1.0;" width="6" x="457" y="238.6084"/><text fill="#000000" font-family="sans-serif" font-size="14" lengthAdjust="spacing" textLength="79" x="469" y="244.9551">Guid userId</text><rect fill="none" height="6" style="stroke:#C82930;stroke-width:1.0;" width="6" x="457" y="254.9053"/><text fill="#000000" font-family="sans-serif" font-size="14" lengthAdjust="spacing" textLength="115" x="469" y="261.252">String userName</text><rect fill="none" height="6" style="stroke:#C82930;stroke-width:1.0;" width="6" x="457" y="271.2022"/><text fill="#000000" font-family="sans-serif" font-size="14" lengthAdjust="spacing" textLength="80" x="469" y="277.5489">String email</text><rect fill="none" height="6" style="stroke:#C82930;stroke-width:1.0;" width="6" x="457" y="287.4991"/><text fill="#000000" font-family="sans-serif" font-size="14" lengthAdjust="spacing" textLength="111" x="469" y="293.8457">String password</text><rect fill="none" height="6" style="stroke:#C82930;stroke-width:1.0;" width="6" x="457" y="303.7959"/><text fill="#000000" font-family="sans-serif" font-size="14" lengthAdjust="spacing" textLength="68" x="469" y="310.1426">String salt</text><rect fill="none" height="6" style="stroke:#C82930;stroke-width:1.0;" width="6" x="457" y="320.0928"/><text fill="#000000" font-family="sans-serif" font-size="14" lengthAdjust="spacing" textLength="69" x="469" y="326.4395">Role roles</text><rect fill="none" height="6" style="stroke:#C82930;stroke-width:1.0;" width="6" x="457" y="336.3897"/><text fill="#000000" font-family="sans-serif" font-size="14" lengthAdjust="spacing" textLength="144" x="469" y="342.7364">DateTime createdOn</text><line style="stroke:#A80036;stroke-width:1.0;" x1="450" x2="618" y1="350.0381" y2="350.0381"/></g><!--class Role--><g id="elem_Role"><rect codeLine="42" fill="#FEFECE" height="96.8906" id="Role" style="stroke:#A80036;stroke-width:1.0;" width="143" x="709" y="228.55"/><ellipse cx="760.75" cy="244.55" fill="#EB937F" rx="11" ry="11" style="stroke:#A80036;stroke-width:1.0;"/><path d="M764.8594,250.55 L757.1406,250.55 L757.1406,238.1594 L764.8594,238.1594 L764.8594,240.3156 L759.5938,240.3156 L759.5938,242.9875 L764.3594,242.9875 L764.3594,245.1437 L759.5938,245.1437 L759.5938,248.3937 L764.8594,248.3937 L764.8594,250.55 Z " fill="#000000"/><text fill="#000000" font-family="sans-serif" font-size="14" lengthAdjust="spacing" textLength="31" x="781.25" y="249.3967">Role</text><line style="stroke:#A80036;stroke-width:1.0;" x1="710" x2="851" y1="260.55" y2="260.55"/><rect fill="none" height="6" style="stroke:#C82930;stroke-width:1.0;" width="6" x="717" y="271.1984"/><text fill="#000000" font-family="sans-serif" font-size="14" lengthAdjust="spacing" textLength="86" x="729" y="277.5451">String admin</text><rect fill="none" height="6" style="stroke:#C82930;stroke-width:1.0;" width="6" x="717" y="287.4953"/><text fill="#000000" font-family="sans-serif" font-size="14" lengthAdjust="spacing" textLength="117" x="729" y="293.842">String subscriber</text><rect fill="none" height="6" style="stroke:#C82930;stroke-width:1.0;" width="6" x="717" y="303.7922"/><text fill="#000000" font-family="sans-serif" font-size="14" lengthAdjust="spacing" textLength="78" x="729" y="310.1389">String artist</text><line style="stroke:#A80036;stroke-width:1.0;" x1="710" x2="851" y1="317.4406" y2="317.4406"/></g><!--class Plan--><g id="elem_Plan"><rect codeLine="50" fill="#FEFECE" height="113.1875" id="Plan" style="stroke:#A80036;stroke-width:1.0;" width="161" x="453.5" y="654.41"/><ellipse cx="515.25" cy="670.41" fill="#ADD1B2" rx="11" ry="11" style="stroke:#A80036;stroke-width:1.0;"/><path d="M518.2188,676.0506 Q517.6406,676.3475 517,676.4881 Q516.3594,676.6444 515.6563,676.6444 Q513.1563,676.6444 511.8281,675.0038 Q510.5156,673.3475 510.5156,670.2225 Q510.5156,667.0975 511.8281,665.4413 Q513.1563,663.785 515.6563,663.785 Q516.3594,663.785 517,663.9413 Q517.6563,664.0975 518.2188,664.3944 L518.2188,667.1131 Q517.5938,666.535 517,666.2694 Q516.4063,665.9881 515.7813,665.9881 Q514.4375,665.9881 513.75,667.0663 Q513.0625,668.1288 513.0625,670.2225 Q513.0625,672.3163 513.75,673.3944 Q514.4375,674.4569 515.7813,674.4569 Q516.4063,674.4569 517,674.1913 Q517.5938,673.91 518.2188,673.3319 L518.2188,676.0506 Z " fill="#000000"/><text fill="#000000" font-family="sans-serif" font-size="14" lengthAdjust="spacing" textLength="29" x="535.75" y="675.2567">Plan</text><line style="stroke:#A80036;stroke-width:1.0;" x1="454.5" x2="613.5" y1="686.41" y2="686.41"/><rect fill="none" height="6" style="stroke:#C82930;stroke-width:1.0;" width="6" x="461.5" y="697.0584"/><text fill="#000000" font-family="sans-serif" font-size="14" lengthAdjust="spacing" textLength="77" x="473.5" y="703.4051">Guid planId</text><rect fill="none" height="6" style="stroke:#C82930;stroke-width:1.0;" width="6" x="461.5" y="713.3553"/><text fill="#000000" font-family="sans-serif" font-size="14" lengthAdjust="spacing" textLength="120" x="473.5" y="719.702">PlanStatus status</text><rect fill="none" height="6" style="stroke:#C82930;stroke-width:1.0;" width="6" x="461.5" y="729.6522"/><text fill="#000000" font-family="sans-serif" font-size="14" lengthAdjust="spacing" textLength="135" x="473.5" y="735.9989">Double monthlyFee</text><rect fill="none" height="6" style="stroke:#C82930;stroke-width:1.0;" width="6" x="461.5" y="745.9491"/><text fill="#000000" font-family="sans-serif" font-size="14" lengthAdjust="spacing" textLength="130" x="473.5" y="752.2957">Int numberMinutes</text><line style="stroke:#A80036;stroke-width:1.0;" x1="454.5" x2="613.5" y1="759.5975" y2="759.5975"/></g><!--class PlanStatus--><g id="elem_PlanStatus"><rect codeLine="57" fill="#FEFECE" height="80.5938" id="PlanStatus" style="stroke:#A80036;stroke-width:1.0;" width="122" x="719.5" y="670.7"/><ellipse cx="742.15" cy="686.7" fill="#EB937F" rx="11" ry="11" style="stroke:#A80036;stroke-width:1.0;"/><path d="M746.2594,692.7 L738.5406,692.7 L738.5406,680.3094 L746.2594,680.3094 L746.2594,682.4656 L740.9938,682.4656 L740.9938,685.1375 L745.7594,685.1375 L745.7594,687.2938 L740.9938,687.2938 L740.9938,690.5438 L746.2594,690.5438 L746.2594,692.7 Z " fill="#000000"/><text fill="#000000" font-family="sans-serif" font-size="14" lengthAdjust="spacing" textLength="73" x="757.85" y="691.5467">PlanStatus</text><line style="stroke:#A80036;stroke-width:1.0;" x1="720.5" x2="840.5" y1="702.7" y2="702.7"/><rect fill="none" height="6" style="stroke:#C82930;stroke-width:1.0;" width="6" x="727.5" y="713.3484"/><text fill="#000000" font-family="sans-serif" font-size="14" lengthAdjust="spacing" textLength="84" x="739.5" y="719.6951">String active</text><rect fill="none" height="6" style="stroke:#C82930;stroke-width:1.0;" width="6" x="727.5" y="729.6453"/><text fill="#000000" font-family="sans-serif" font-size="14" lengthAdjust="spacing" textLength="96" x="739.5" y="735.992">String inactive</text><line style="stroke:#A80036;stroke-width:1.0;" x1="720.5" x2="840.5" y1="743.2938" y2="743.2938"/></g><!--class Subscription--><g id="elem_Subscription"><rect codeLine="64" fill="#FEFECE" height="145.7813" id="Subscription" style="stroke:#A80036;stroke-width:1.0;" width="203" x="679" y="433.11"/><ellipse cx="733.25" cy="449.11" fill="#ADD1B2" rx="11" ry="11" style="stroke:#A80036;stroke-width:1.0;"/><path d="M736.2188,454.7506 Q735.6406,455.0475 735,455.1881 Q734.3594,455.3444 733.6563,455.3444 Q731.1563,455.3444 729.8281,453.7038 Q728.5156,452.0475 728.5156,448.9225 Q728.5156,445.7975 729.8281,444.1413 Q731.1563,442.485 733.6563,442.485 Q734.3594,442.485 735,442.6413 Q735.6563,442.7975 736.2188,443.0944 L736.2188,445.8131 Q735.5938,445.235 735,444.9694 Q734.4063,444.6881 733.7813,444.6881 Q732.4375,444.6881 731.75,445.7663 Q731.0625,446.8288 731.0625,448.9225 Q731.0625,451.0163 731.75,452.0944 Q732.4375,453.1569 733.7813,453.1569 Q734.4063,453.1569 735,452.8913 Q735.5938,452.61 736.2188,452.0319 L736.2188,454.7506 Z " fill="#000000"/><text fill="#000000" font-family="sans-serif" font-size="14" lengthAdjust="spacing" textLength="86" x="753.75" y="453.9567">Subscription</text><line style="stroke:#A80036;stroke-width:1.0;" x1="680" x2="881" y1="465.11" y2="465.11"/><rect fill="none" height="6" style="stroke:#C82930;stroke-width:1.0;" width="6" x="687" y="475.7584"/><text fill="#000000" font-family="sans-serif" font-size="14" lengthAdjust="spacing" textLength="133" x="699" y="482.1051">Guid subscriptionId</text><rect fill="none" height="6" style="stroke:#C82930;stroke-width:1.0;" width="6" x="687" y="492.0553"/><text fill="#000000" font-family="sans-serif" font-size="14" lengthAdjust="spacing" textLength="79" x="699" y="498.402">Guid userId</text><rect fill="none" height="6" style="stroke:#C82930;stroke-width:1.0;" width="6" x="687" y="508.3522"/><text fill="#000000" font-family="sans-serif" font-size="14" lengthAdjust="spacing" textLength="77" x="699" y="514.6989">Guid planId</text><rect fill="none" height="6" style="stroke:#C82930;stroke-width:1.0;" width="6" x="687" y="524.6491"/><text fill="#000000" font-family="sans-serif" font-size="14" lengthAdjust="spacing" textLength="110" x="699" y="530.9957">Date createdOn</text><rect fill="none" height="6" style="stroke:#C82930;stroke-width:1.0;" width="6" x="687" y="540.9459"/><text fill="#000000" font-family="sans-serif" font-size="14" lengthAdjust="spacing" textLength="120" x="699" y="547.2926">Date? renewDate</text><rect fill="none" height="6" style="stroke:#C82930;stroke-width:1.0;" width="6" x="687" y="557.2428"/><text fill="#000000" font-family="sans-serif" font-size="14" lengthAdjust="spacing" textLength="177" x="699" y="563.5895">SubscriptionStatus status</text><line style="stroke:#A80036;stroke-width:1.0;" x1="680" x2="881" y1="570.8913" y2="570.8913"/></g><!--class SubscriptionStatus--><g id="elem_SubscriptionStatus"><rect codeLine="73" fill="#FEFECE" height="80.5938" id="SubscriptionStatus" style="stroke:#A80036;stroke-width:1.0;" width="162" x="942" y="465.7"/><ellipse cx="957" cy="481.7" fill="#EB937F" rx="11" ry="11" style="stroke:#A80036;stroke-width:1.0;"/><path d="M961.1094,487.7 L953.3906,487.7 L953.3906,475.3094 L961.1094,475.3094 L961.1094,477.4656 L955.8438,477.4656 L955.8438,480.1375 L960.6094,480.1375 L960.6094,482.2938 L955.8438,482.2938 L955.8438,485.5438 L961.1094,485.5438 L961.1094,487.7 Z " fill="#000000"/><text fill="#000000" font-family="sans-serif" font-size="14" lengthAdjust="spacing" textLength="130" x="971" y="486.5467">SubscriptionStatus</text><line style="stroke:#A80036;stroke-width:1.0;" x1="943" x2="1103" y1="497.7" y2="497.7"/><rect fill="none" height="6" style="stroke:#C82930;stroke-width:1.0;" width="6" x="950" y="508.3484"/><text fill="#000000" font-family="sans-serif" font-size="14" lengthAdjust="spacing" textLength="84" x="962" y="514.6951">String active</text><rect fill="none" height="6" style="stroke:#C82930;stroke-width:1.0;" width="6" x="950" y="524.6453"/><text fill="#000000" font-family="sans-serif" font-size="14" lengthAdjust="spacing" textLength="96" x="962" y="530.992">String inactive</text><line style="stroke:#A80036;stroke-width:1.0;" x1="943" x2="1103" y1="538.2938" y2="538.2938"/></g><!--link Song to Album--><g id="link_Song_Album"><path codeLine="79" d="M188.48,203.9 C207.94,214.92 228.7,226.68 247.75,237.48 " fill="none" id="Song-Album" style="stroke:#A80036;stroke-width:1.0;"/><text fill="#000000" font-family="sans-serif" font-size="13" lengthAdjust="spacing" textLength="23" x="195.9315" y="220.2288">1..*</text><text fill="#000000" font-family="sans-serif" font-size="13" lengthAdjust="spacing" textLength="8" x="232.0414" y="246.2522">1</text></g><!--link Song to Playlist--><g id="link_Song_Playlist"><path codeLine="80" d="M188.34,150.86 C318.86,135.44 580.97,104.46 707.67,89.49 " fill="none" id="Song-Playlist" style="stroke:#A80036;stroke-width:1.0;"/><text fill="#000000" font-family="sans-serif" font-size="13" lengthAdjust="spacing" textLength="23" x="196.0606" y="162.7915">1..*</text><text fill="#000000" font-family="sans-serif" font-size="13" lengthAdjust="spacing" textLength="23" x="676.8958" y="103.0374">1..*</text></g><!--link Song to User--><g id="link_Song_User"><path codeLine="81" d="M188.39,166.78 C250.42,173.82 339.02,187.51 413,213 C424.83,217.08 436.91,222.21 448.62,227.78 " fill="none" id="Song-User" style="stroke:#A80036;stroke-width:1.0;"/><text fill="#000000" font-family="sans-serif" font-size="13" lengthAdjust="spacing" textLength="23" x="196.1149" y="180.0796">1..*</text><text fill="#000000" font-family="sans-serif" font-size="13" lengthAdjust="spacing" textLength="8" x="432.9389" y="236.2674">1</text></g><!--link Album to User--><g id="link_Album_User"><path codeLine="82" d="M389.41,277 C408.38,277 429.12,277 448.79,277 " fill="none" id="Album-User" style="stroke:#A80036;stroke-width:1.0;"/><text fill="#000000" font-family="sans-serif" font-size="13" lengthAdjust="spacing" textLength="23" x="397.0072" y="289.7649">1..*</text><text fill="#000000" font-family="sans-serif" font-size="13" lengthAdjust="spacing" textLength="8" x="433.1235" y="289.7172">1</text></g><!--link User to Role--><g id="link_User_Role"><path codeLine="84" d="M619.49,277 C648.61,277 680.91,277 708.81,277 " fill="none" id="User-Role" style="stroke:#A80036;stroke-width:1.0;"/><text fill="#000000" font-family="sans-serif" font-size="13" lengthAdjust="spacing" textLength="23" x="626.9158" y="289.6463">1..*</text><text fill="#000000" font-family="sans-serif" font-size="13" lengthAdjust="spacing" textLength="8" x="693.0045" y="289.8477">1</text></g><!--link User to Playlist--><g id="link_User_Playlist"><path codeLine="85" d="M619.18,208.81 C631.19,199.13 643.4,189.3 655,180 C679.02,160.74 705.74,139.48 728.24,121.61 " fill="none" id="User-Playlist" style="stroke:#A80036;stroke-width:1.0;"/><text fill="#000000" font-family="sans-serif" font-size="13" lengthAdjust="spacing" textLength="8" x="627.1226" y="215.4777">1</text><text fill="#000000" font-family="sans-serif" font-size="13" lengthAdjust="spacing" textLength="23" x="695.0783" y="141.3555">0..*</text></g><!--link User to Subscription--><g id="link_User_Subscription"><path codeLine="86" d="M619.49,356.13 C645.99,380.95 675.11,408.23 701.17,432.64 " fill="none" id="User-Subscription" style="stroke:#A80036;stroke-width:1.0;"/><text fill="#000000" font-family="sans-serif" font-size="13" lengthAdjust="spacing" textLength="8" x="626.9009" y="375.3765">1</text><text fill="#000000" font-family="sans-serif" font-size="13" lengthAdjust="spacing" textLength="8" x="685.2276" y="422.0062">1</text></g><!--link Plan to Subscription--><g id="link_Plan_Subscription"><path codeLine="88" d="M602.78,654.17 C630.48,630.94 662.87,603.79 692.3,579.11 " fill="none" id="Plan-Subscription" style="stroke:#A80036;stroke-width:1.0;"/><text fill="#000000" font-family="sans-serif" font-size="13" lengthAdjust="spacing" textLength="8" x="602.6751" y="643.4043">1</text><text fill="#000000" font-family="sans-serif" font-size="13" lengthAdjust="spacing" textLength="23" x="659.7973" y="598.8663">0..*</text></g><!--link Subscription to SubscriptionStatus--><g id="link_Subscription_SubscriptionStatus"><path codeLine="89" d="M882.45,506 C902.24,506 922.76,506 941.76,506 " fill="none" id="Subscription-SubscriptionStatus" style="stroke:#A80036;stroke-width:1.0;"/><text fill="#000000" font-family="sans-serif" font-size="13" lengthAdjust="spacing" textLength="23" x="890.0724" y="518.5752">1..*</text><text fill="#000000" font-family="sans-serif" font-size="13" lengthAdjust="spacing" textLength="8" x="925.9019" y="518.7647">1</text></g><!--link Plan to PlanStatus--><g id="link_Plan_PlanStatus"><path codeLine="90" d="M614.72,711 C648.72,711 687.74,711 719.27,711 " fill="none" id="Plan-PlanStatus" style="stroke:#A80036;stroke-width:1.0;"/><text fill="#000000" font-family="sans-serif" font-size="13" lengthAdjust="spacing" textLength="23" x="622.357" y="723.6932">1..*</text><text fill="#000000" font-family="sans-serif" font-size="13" lengthAdjust="spacing" textLength="8" x="703.3201" y="723.9894">1</text></g><!--SRC=[fLHDRzim3BthLn2v52YGPBlsKWmODlImTPYx7y3Oh2DK7uP4BIYA_lT9Sen8iO0TwelbzqGzyedqpP5vydVx_QJGSD1grrkzxnLwlnqaZWwry2_IWBEUych2Y84_uc1FqepmZ2eoYfuPs8AJuv5Xa8vwbjO8CM7_WYD1PyteuKr0VFBn6Pc_qxE5xq4Eu2FuC1Henowf9Fn9igBh07GiFLSXJr9JDw618JZCMTGnzu3g4FGvvbsyNxByfV1LnVFgJ1SKLkbEPwQLyi9TqgwalgGSQfqChKNAR2k5JFpVbKhsZoTNgoPaBHeYsj9C-4_Kj6P8erGD6wB6oRhMdQBY0lrj5SKsK-GBy2iofVk4tb5S3e_cN59-aOb-vRYtXZk3bgQX6Ww-T_90hX6IRMksXLcrX6brWwayIxiwHWuUV7wLbTbmY8bhQ_YeNhzHwUY3OOYbnHn_I1Fux4XPT75og_GuV7yRLoHDmLGLThChKngNgp4jc7MR-8AjIcytKTkcTCbN5tmXxi6HeLDQbWKLkck7IwSQEp_aMFfjmURpRdUxWUqshZRptAw9l5h-7QsuD7bY7le68V9WraJgzGMVmK-rIiN5Lrcz4AbhhYAh3TLTryfh6vVJobsNjlm7]--></g></svg>