<svg xmlns="http://www.w3.org/2000/svg" xmlns:xlink="http://www.w3.org/1999/xlink" contentStyleType="text/css" height="878px" preserveAspectRatio="none" style="width:382px;height:878px;background:#FFFFFF;" version="1.1" viewBox="0 0 382 878" width="382px" zoomAndPan="magnify"><defs/><g><!--cluster app--><g id="cluster_app"><rect fill="none" height="444.59" style="stroke:#A80036;stroke-width:1.0;" width="227" x="118.5" y="241"/><rect fill="none" height="10" style="stroke:#A80036;stroke-width:1.0;" width="15" x="325.5" y="246"/><rect fill="none" height="2" style="stroke:#A80036;stroke-width:1.0;" width="4" x="323.5" y="248"/><rect fill="none" height="2" style="stroke:#A80036;stroke-width:1.0;" width="4" x="323.5" y="252"/><text fill="#000000" font-family="sans-serif" font-size="14" font-weight="bold" lengthAdjust="spacing" textLength="31" x="216.5" y="266.9951">App</text></g><!--cluster db--><g id="cluster_db"><path d="M77.5,759.59 C77.5,749.59 173.5,749.59 173.5,749.59 C173.5,749.59 269.5,749.59 269.5,759.59 L269.5,851.89 C269.5,861.89 173.5,861.89 173.5,861.89 C173.5,861.89 77.5,861.89 77.5,851.89 L77.5,759.59 " fill="none" style="stroke:#A80036;stroke-width:1.0;"/><path d="M77.5,759.59 C77.5,769.59 173.5,769.59 173.5,769.59 C173.5,769.59 269.5,769.59 269.5,759.59 " fill="none" style="stroke:#A80036;stroke-width:1.0;"/><text fill="#000000" font-family="sans-serif" font-size="14" font-weight="bold" lengthAdjust="spacing" textLength="168" x="89.5" y="784.5851">Microsoft SQL Server</text></g><!--entity backend--><g id="elem_backend"><rect fill="#FEFECE" height="46.2969" style="stroke:#A80036;stroke-width:1.0;" width="155" x="135" y="560.3"/><rect fill="#FEFECE" height="10" style="stroke:#A80036;stroke-width:1.0;" width="15" x="270" y="565.3"/><rect fill="#FEFECE" height="2" style="stroke:#A80036;stroke-width:1.0;" width="4" x="268" y="567.3"/><rect fill="#FEFECE" height="2" style="stroke:#A80036;stroke-width:1.0;" width="4" x="268" y="571.3"/><text fill="#000000" font-family="sans-serif" font-size="14" lengthAdjust="spacing" textLength="115" x="150" y="593.2951">Backend Service</text></g><!--entity frontend--><g id="elem_frontend"><rect fill="#FEFECE" height="46.2969" style="stroke:#A80036;stroke-width:1.0;" width="134" x="134.5" y="319"/><rect fill="#FEFECE" height="10" style="stroke:#A80036;stroke-width:1.0;" width="15" x="248.5" y="324"/><rect fill="#FEFECE" height="2" style="stroke:#A80036;stroke-width:1.0;" width="4" x="246.5" y="326"/><rect fill="#FEFECE" height="2" style="stroke:#A80036;stroke-width:1.0;" width="4" x="246.5" y="330"/><text fill="#000000" font-family="sans-serif" font-size="14" lengthAdjust="spacing" textLength="94" x="149.5" y="351.9951">Frontend App</text></g><text fill="#000000" font-family="sans-serif" font-size="14" lengthAdjust="spacing" textLength="57" x="173" y="219.6982">Browser</text><rect fill="#FEFECE" height="12" style="stroke:#A80036;stroke-width:1.5;" width="12" x="195.5" y="235"/><!--entity api--><g id="elem_api"><ellipse cx="205.5" cy="471.3" fill="#FEFECE" rx="8" ry="8" style="stroke:#A80036;stroke-width:1.0;"/><text fill="#000000" font-family="sans-serif" font-size="14" lengthAdjust="spacing" textLength="48" x="181.5" y="501.2951">AppApi</text></g><text fill="#000000" font-family="sans-serif" font-size="14" lengthAdjust="spacing" textLength="87" x="146" y="704.5851">DatabaseAPI</text><rect fill="#FEFECE" height="12" style="stroke:#A80036;stroke-width:1.5;" width="12" x="183.5" y="679.59"/><text fill="#000000" font-family="sans-serif" font-size="14" lengthAdjust="spacing" textLength="95" x="280" y="704.5851">FileSystemAPI</text><rect fill="#FEFECE" height="12" style="stroke:#A80036;stroke-width:1.5;" width="12" x="321.5" y="679.59"/><!--entity db_service--><g id="elem_db_service"><rect fill="#FEFECE" height="46.2969" style="stroke:#A80036;stroke-width:1.0;" width="160" x="93.5" y="799.59"/><rect fill="#FEFECE" height="10" style="stroke:#A80036;stroke-width:1.0;" width="15" x="233.5" y="804.59"/><rect fill="#FEFECE" height="2" style="stroke:#A80036;stroke-width:1.0;" width="4" x="231.5" y="806.59"/><rect fill="#FEFECE" height="2" style="stroke:#A80036;stroke-width:1.0;" width="4" x="231.5" y="810.59"/><text fill="#000000" font-family="sans-serif" font-size="14" lengthAdjust="spacing" textLength="120" x="108.5" y="832.5851">Database Service</text></g><!--entity utilizador--><g id="elem_utilizador"><ellipse cx="39.5" cy="133" fill="#FEFECE" rx="8" ry="8" style="stroke:#A80036;stroke-width:1.0;"/><text fill="#000000" font-family="sans-serif" font-size="14" lengthAdjust="spacing" textLength="63" x="10" y="162.9951">Utilizador</text></g><!--entity cliente--><g id="elem_cliente"><ellipse cx="149.5" cy="133" fill="#FEFECE" rx="8" ry="8" style="stroke:#A80036;stroke-width:1.0;"/><text fill="#000000" font-family="sans-serif" font-size="14" lengthAdjust="spacing" textLength="48" x="127.5" y="162.9951">Cliente</text></g><!--entity admin--><g id="elem_admin"><ellipse cx="101.5" cy="241" fill="#FEFECE" rx="8" ry="8" style="stroke:#A80036;stroke-width:1.0;"/><text fill="#000000" font-family="sans-serif" font-size="14" lengthAdjust="spacing" textLength="43" x="82" y="270.9951">Admin</text></g><!--entity interprete--><g id="elem_interprete"><ellipse cx="253.5" cy="14" fill="#FEFECE" rx="8" ry="8" style="stroke:#A80036;stroke-width:1.0;"/><text fill="#000000" font-family="sans-serif" font-size="14" lengthAdjust="spacing" textLength="68" x="221.5" y="43.9951">Int&#233;rprete</text></g><!--entity subscritor--><g id="elem_subscritor"><ellipse cx="330.5" cy="133" fill="#FEFECE" rx="8" ry="8" style="stroke:#A80036;stroke-width:1.0;"/><text fill="#000000" font-family="sans-serif" font-size="14" lengthAdjust="spacing" textLength="69" x="296" y="162.9951">subscritor</text></g><!--entity FileSystem--><g id="elem_FileSystem"><ellipse cx="333.5" cy="822.74" fill="#FEFECE" rx="8" ry="8" style="stroke:#A80036;stroke-width:1.0;"/><text fill="#000000" font-family="sans-serif" font-size="14" lengthAdjust="spacing" textLength="74" x="296.5" y="852.7351">FileSystem</text></g><!--link utilizador to browser--><g id="link_utilizador_browser"><path d="M48.21,139.7 C77.39,158.79 166.2191,216.9151 190.6291,232.8851 " fill="none" id="utilizador-to-browser" style="stroke:#A80036;stroke-width:1.0;"/><polygon fill="#A80036" points="195.65,236.17,190.3086,227.8954,191.4659,233.4326,185.9287,234.59,195.65,236.17" style="stroke:#A80036;stroke-width:1.0;"/></g><!--link cliente to browser--><g id="link_cliente_browser"><path d="M153.41,141.97 C163.61,162.77 188.1865,212.8737 196.4465,229.7037 " fill="none" id="cliente-to-browser" style="stroke:#A80036;stroke-width:1.0;"/><polygon fill="#A80036" points="199.09,235.09,198.7156,225.2483,196.8871,230.6015,191.5339,228.773,199.09,235.09" style="stroke:#A80036;stroke-width:1.0;"/></g><!--link admin to browser--><g id="link_admin_browser"><path d="M110.86,241 C130.67,241 174,241 189.65,241 " fill="none" id="admin-to-browser" style="stroke:#A80036;stroke-width:1.0;"/><polygon fill="#A80036" points="195.65,241,186.65,237,190.65,241,186.65,245,195.65,241" style="stroke:#A80036;stroke-width:1.0;"/></g><!--link subscritor to browser--><g id="link_subscritor_browser"><path d="M324.9,141.96 C316.17,154 298.34,177.12 279.5,193 C255.08,213.58 226.0456,228.3571 212.6056,234.7671 " fill="none" id="subscritor-to-browser" style="stroke:#A80036;stroke-width:1.0;"/><polygon fill="#A80036" points="207.19,237.35,217.0353,237.0861,211.703,235.1976,213.5915,229.8653,207.19,237.35" style="stroke:#A80036;stroke-width:1.0;"/></g><!--link interprete to browser--><g id="link_interprete_browser"><path d="M251.71,22.74 C243.46,58.44 210.5711,200.7641 203.9611,229.3641 " fill="none" id="interprete-to-browser" style="stroke:#A80036;stroke-width:1.0;"/><polygon fill="#A80036" points="202.61,235.21,208.5339,227.3419,203.7359,230.3384,200.7394,225.5404,202.61,235.21" style="stroke:#A80036;stroke-width:1.0;"/></g><!--link browser to frontend--><g id="link_browser_frontend"><path d="M201.5,246.78 C201.5,259.55 201.5,295.06 201.5,318.69 " fill="none" id="browser-frontend" style="stroke:#A80036;stroke-width:1.0;"/></g><!--link frontend to api--><g id="link_frontend_api"><path d="M188.71,365.61 C182.59,379.01 177.23,396.45 180.5,412.3 C184.4,431.2 191.8153,446.2867 197.9053,457.1467 " fill="none" id="frontend-to-api" style="stroke:#A80036;stroke-width:1.0;stroke-dasharray:7.0,7.0;"/><polygon fill="#A80036" points="200.84,462.38,199.9268,452.5736,198.3944,458.0189,192.9491,456.4865,200.84,462.38" style="stroke:#A80036;stroke-width:1.0;"/><text fill="#000000" font-family="sans-serif" font-size="13" lengthAdjust="spacing" textLength="30" x="181.5" y="408.3669">uses</text></g><!--link api to backend--><g id="link_api_backend"><path d="M206,480.22 C207.05,496.69 209.1203,529.192 210.6903,553.952 " fill="none" id="api-to-backend" style="stroke:#A80036;stroke-width:1.0;"/><polygon fill="#A80036" points="211.07,559.94,214.4924,550.7049,210.7536,554.95,206.5085,551.2112,211.07,559.94" style="stroke:#A80036;stroke-width:1.0;"/></g><!--link backend to dbApi--><g id="link_backend_dbApi"><path d="M207.4,606.67 C201.89,630.64 194.8645,661.2526 191.9145,674.0826 " fill="none" id="backend-to-dbApi" style="stroke:#A80036;stroke-width:1.0;"/><polygon fill="#A80036" points="190.57,679.93,196.485,672.0552,191.6904,675.0571,188.6885,670.2625,190.57,679.93" style="stroke:#A80036;stroke-width:1.0;"/></g><!--link dbApi to db_service--><g id="link_dbApi_db_service"><path d="M188.93,691.4 C186.92,708.43 180.7457,760.5716 176.8857,793.1616 " fill="none" id="dbApi-to-db_service" style="stroke:#A80036;stroke-width:1.0;"/><polygon fill="#A80036" points="176.18,799.12,181.2108,790.6529,176.7681,794.1547,173.2663,789.712,176.18,799.12" style="stroke:#A80036;stroke-width:1.0;"/></g><!--link backend to fsApi--><g id="link_backend_fsApi"><path d="M238.31,606.92 C265.86,630.91 302.9971,663.2475 317.6471,676.0175 " fill="none" id="backend-to-fsApi" style="stroke:#A80036;stroke-width:1.0;"/><polygon fill="#A80036" points="322.17,679.96,318.014,671.031,318.4009,676.6746,312.7573,677.0615,322.17,679.96" style="stroke:#A80036;stroke-width:1.0;"/></g><!--link fsApi to FileSystem--><g id="link_fsApi_FileSystem"><path d="M327.71,691.4 C328.61,711.53 331.7828,783.096 332.8928,807.996 " fill="none" id="fsApi-to-FileSystem" style="stroke:#A80036;stroke-width:1.0;"/><polygon fill="#A80036" points="333.16,813.99,336.7552,804.8208,332.9373,808.995,328.7632,805.1771,333.16,813.99" style="stroke:#A80036;stroke-width:1.0;"/></g><!--SRC=[RLDBRjim4Dtp50Djr2vaxut0WEp0W87KIEDqNL0YPHEHI8Aawhf5Bz2Rz1ovM8UaldO4I9ZFcvd7uLDwTaxRrNAfQofTszIBKZLBVBMINBgC2Neoj274lWa9HbaUB4qn2FPCcRe8UOAArfWXwPWhQFbsCggLRAjgPS1mXlbi-i3hItuuFkSlxtyFstqEsVr3KZYULLipS6SE-VCU2WuKj54_hp2m126juvHDg6aSJq_yuU69NbNhrcluJG0APHWtaT2heT8Y6EjzveRkF5ifwJwAurJ3bRjglliGyOUC79DSwmIe1Qfr80EJ0q2oGG9SCZXoyqEKF22B6Bl3xWnEy-2-PTK50b8hu_2kaerH5yjDx1Jja1S8DHKjUQ2KQz6n4aCrBWoIH-feGIt7fGS0A_9Ro4xK_7Z59JGzgB8UXESch2k7v8ieKJUgSd3y-XJErv5YnTqUXgcpFR3Ykuskxqm-VOO4lZbHYr-elzYh7ToOtjO2-yNoCjenaRD6o7XYRyNWNhhtVqORtbM45GKNnwNxVc7MCssbA55WQA4G-yNxIoKZ1yXOjXwMtir7VO-nC1moCmdPjh2b4SwNJy8Z5_-3Z77I6NxMA02IxYQK1hw1hke51Vqs1_gBnTeh05RGMcw9DyEiJe0atSmhvuqf3BVTT-ud-IvHEU7R-SDrulzzu1Ti8YKldL1o1RUJd0AlCuX2cpMEQWlVu8zw_0y0]--></g></svg>