<svg width="396" height="348" xmlns="http://www.w3.org/2000/svg" xmlns:xlink="http://www.w3.org/1999/xlink" xml:space="preserve" overflow="hidden"><defs><clipPath id="clip0"><rect x="0" y="0" width="396" height="348"/></clipPath></defs><g clip-path="url(#clip0)"><path d="M4.24828 288.883 102.566 288.883 102.566 344.006 4.24827 344.006Z" stroke="#A80036" stroke-width="0.606897" fill="#FEFECE" transform="scale(1 1.00378)"/><path d="M90.4276 291.917 99.531 291.917 99.531 297.986 90.4276 297.986Z" stroke="#A80036" stroke-width="0.606897" fill="#FEFECE" transform="scale(1 1.00378)"/><path d="M89.2138 293.131 91.6414 293.131 91.6414 294.345 89.2138 294.345Z" stroke="#A80036" stroke-width="0.606897" fill="#FEFECE" transform="scale(1 1.00378)"/><path d="M89.2138 295.559 91.6414 295.559 91.6414 296.772 89.2138 296.772Z" stroke="#A80036" stroke-width="0.606897" fill="#FEFECE" transform="scale(1 1.00378)"/><text font-family="Arial,Arial_MSFontService,sans-serif" font-style="italic" font-weight="400" font-size="11" transform="matrix(0.758621 0 0 0.761488 31.5586 311)">«Service»</text><text font-family="Arial,Arial_MSFontService,sans-serif" font-weight="400" font-size="11" transform="matrix(0.758621 0 0 0.761488 13.3517 322)">UsersManagement</text><path d="M4.85517 322.395 101.959 322.395" stroke="#A80036" stroke-width="0.606897" fill="none" transform="scale(1 1.00378)"/><text font-family="Arial,Arial_MSFontService,sans-serif" font-weight="400" font-size="11" transform="matrix(0.758621 0 0 0.761488 15.7793 335)">/</text><text font-family="Arial,Arial_MSFontService,sans-serif" font-weight="400" font-size="11" transform="matrix(0.758621 0 0 0.761488 18.0552 335)">users</text><path d="M196.028 288.883 289.49 288.883 289.49 344.006 196.028 344.006Z" stroke="#A80036" stroke-width="0.606897" fill="#FEFECE" transform="scale(1 1.00378)"/><path d="M277.352 291.917 286.455 291.917 286.455 297.986 277.352 297.986Z" stroke="#A80036" stroke-width="0.606897" fill="#FEFECE" transform="scale(1 1.00378)"/><path d="M276.138 293.131 278.566 293.131 278.566 294.345 276.138 294.345Z" stroke="#A80036" stroke-width="0.606897" fill="#FEFECE" transform="scale(1 1.00378)"/><path d="M276.138 295.559 278.566 295.559 278.566 296.772 276.138 296.772Z" stroke="#A80036" stroke-width="0.606897" fill="#FEFECE" transform="scale(1 1.00378)"/><text font-family="Arial,Arial_MSFontService,sans-serif" font-style="italic" font-weight="400" font-size="11" transform="matrix(0.758621 0 0 0.761488 220.91 311)">«Service»</text><text font-family="Arial,Arial_MSFontService,sans-serif" font-weight="400" font-size="11" transform="matrix(0.758621 0 0 0.761488 205.131 322)">PlanManagement</text><path d="M196.634 322.395 288.883 322.395" stroke="#A80036" stroke-width="0.606897" fill="none" transform="scale(1 1.00378)"/><text font-family="Arial,Arial_MSFontService,sans-serif" font-weight="400" font-size="11" transform="matrix(0.758621 0 0 0.761488 207.559 335)">/</text><text font-family="Arial,Arial_MSFontService,sans-serif" font-weight="400" font-size="11" transform="matrix(0.758621 0 0 0.761488 209.834 335)">plans</text><path d="M85.5724 4.24828 209.379 4.24828 209.379 80.7461 85.5724 80.7461Z" stroke="#A80036" stroke-width="0.606897" fill="#FEFECE" transform="scale(1 1.00378)"/><path d="M197.241 7.28276 206.345 7.28276 206.345 13.3517 197.241 13.3517Z" stroke="#A80036" stroke-width="0.606897" fill="#FEFECE" transform="scale(1 1.00378)"/><path d="M196.028 8.49655 198.455 8.49655 198.455 9.71035 196.028 9.71035Z" stroke="#A80036" stroke-width="0.606897" fill="#FEFECE" transform="scale(1 1.00378)"/><path d="M196.028 10.9241 198.455 10.9241 198.455 12.1379 196.028 12.1379Z" stroke="#A80036" stroke-width="0.606897" fill="#FEFECE" transform="scale(1 1.00378)"/><text font-family="Arial,Arial_MSFontService,sans-serif" font-style="italic" font-weight="400" font-size="11" transform="matrix(0.758621 0 0 0.761488 125.628 25)">«Service»</text><text font-family="Arial,Arial_MSFontService,sans-serif" font-weight="400" font-size="11" transform="matrix(0.758621 0 0 0.761488 94.6759 36)">SubscriptionManagement</text><path d="M86.1793 37.7603 208.772 37.7603" stroke="#A80036" stroke-width="0.606897" fill="none" transform="scale(1 1.00378)"/><text font-family="Arial,Arial_MSFontService,sans-serif" font-weight="400" font-size="11" transform="matrix(0.758621 0 0 0.761488 97.1034 49)">/</text><text font-family="Arial,Arial_MSFontService,sans-serif" font-weight="400" font-size="11" transform="matrix(0.758621 0 0 0.761488 99.3793 49)">subscriptions</text><text font-family="Arial,Arial_MSFontService,sans-serif" font-weight="400" font-size="11" transform="matrix(0.758621 0 0 0.761488 97.1034 60)">/</text><text font-family="Arial,Arial_MSFontService,sans-serif" font-weight="400" font-size="11" transform="matrix(0.758621 0 0 0.761488 99.3793 60)">users</text><text font-family="Arial,Arial_MSFontService,sans-serif" font-weight="400" font-size="11" transform="matrix(0.758621 0 0 0.761488 97.1034 71)">/</text><text font-family="Arial,Arial_MSFontService,sans-serif" font-weight="400" font-size="11" transform="matrix(0.758621 0 0 0.761488 99.3793 71)">plans</text><path d="M107.724 128.055 187.228 128.055 187.228 193.866 107.724 193.866Z" stroke="#A80036" stroke-width="0.606897" fill="#FEFECE" transform="scale(1 1.00378)"/><path d="M175.09 131.09 184.193 131.09 184.193 137.159 175.09 137.159Z" stroke="#A80036" stroke-width="0.606897" fill="#FEFECE" transform="scale(1 1.00378)"/><path d="M173.876 132.303 176.303 132.303 176.303 133.517 173.876 133.517Z" stroke="#A80036" stroke-width="0.606897" fill="#FEFECE" transform="scale(1 1.00378)"/><path d="M173.876 134.731 176.303 134.731 176.303 135.945 173.876 135.945Z" stroke="#A80036" stroke-width="0.606897" fill="#FEFECE" transform="scale(1 1.00378)"/><text font-family="Arial,Arial_MSFontService,sans-serif" font-weight="400" font-size="11" transform="matrix(0.758621 0 0 0.761488 116.828 150)">API</text><text font-family="Arial,Arial_MSFontService,sans-serif" font-weight="400" font-size="11" transform="matrix(0.758621 0 0 0.761488 128.966 150)">_</text><text font-family="Arial,Arial_MSFontService,sans-serif" font-weight="400" font-size="11" transform="matrix(0.758621 0 0 0.761488 133.517 150)">Gateway</text><path d="M108.331 150.88 186.621 150.88" stroke="#A80036" stroke-width="0.606897" fill="none" transform="scale(1 1.00378)"/><text font-family="Arial,Arial_MSFontService,sans-serif" font-weight="400" font-size="11" transform="matrix(0.758621 0 0 0.761488 119.255 163)">/</text><text font-family="Arial,Arial_MSFontService,sans-serif" font-weight="400" font-size="11" transform="matrix(0.758621 0 0 0.761488 121.531 163)">users</text><text font-family="Arial,Arial_MSFontService,sans-serif" font-weight="400" font-size="11" transform="matrix(0.758621 0 0 0.761488 119.255 173)">/</text><text font-family="Arial,Arial_MSFontService,sans-serif" font-weight="400" font-size="11" transform="matrix(0.758621 0 0 0.761488 121.531 173)">plans</text><text font-family="Arial,Arial_MSFontService,sans-serif" font-weight="400" font-size="11" transform="matrix(0.758621 0 0 0.761488 119.255 184)">/</text><text font-family="Arial,Arial_MSFontService,sans-serif" font-weight="400" font-size="11" transform="matrix(0.758621 0 0 0.761488 121.531 184)">subscriptions</text><path d="M310.731 303.145C310.731 297.076 335.614 297.076 335.614 297.076 335.614 297.076 360.497 297.076 360.497 303.145L360.497 329.981C360.497 336.05 335.614 336.05 335.614 336.05 335.614 336.05 310.731 336.05 310.731 329.981L310.731 303.145" stroke="#A80036" stroke-width="0.606897" fill="#FEFECE" transform="scale(1 1.00378)"/><path d="M310.731 303.145C310.731 309.214 335.614 309.214 335.614 309.214 335.614 309.214 360.497 309.214 360.497 303.145" stroke="#A80036" stroke-width="0.606897" fill="none" transform="scale(1 1.00378)"/><text font-family="Arial,Arial_MSFontService,sans-serif" font-style="italic" font-weight="400" font-size="11" transform="matrix(0.758621 0 0 0.761488 321.959 322)">«local»</text><text font-family="Arial,Arial_MSFontService,sans-serif" font-weight="400" font-size="11" transform="matrix(0.758621 0 0 0.761488 316.8 332)">Plans</text><text font-family="Arial,Arial_MSFontService,sans-serif" font-weight="400" font-size="11" transform="matrix(0.758621 0 0 0.761488 336.524 332)">_</text><text font-family="Arial,Arial_MSFontService,sans-serif" font-weight="400" font-size="11" transform="matrix(0.758621 0 0 0.761488 341.076 332)">DB</text><path d="M230.621 29.131C230.621 23.0621 270.676 23.0621 270.676 23.0621 270.676 23.0621 310.731 23.0621 310.731 29.131L310.731 55.9672C310.731 62.0362 270.676 62.0362 270.676 62.0362 270.676 62.0362 230.621 62.0362 230.621 55.9672L230.621 29.131" stroke="#A80036" stroke-width="0.606897" fill="#FEFECE" transform="scale(1 1.00378)"/><path d="M230.621 29.131C230.621 35.2 270.676 35.2 270.676 35.2 270.676 35.2 310.731 35.2 310.731 29.131" stroke="#A80036" stroke-width="0.606897" fill="none" transform="scale(1 1.00378)"/><text font-family="Arial,Arial_MSFontService,sans-serif" font-style="italic" font-weight="400" font-size="11" transform="matrix(0.758621 0 0 0.761488 257.021 47)">«local»</text><text font-family="Arial,Arial_MSFontService,sans-serif" font-weight="400" font-size="11" transform="matrix(0.758621 0 0 0.761488 236.69 57)">Subscriptions</text><text font-family="Arial,Arial_MSFontService,sans-serif" font-weight="400" font-size="11" transform="matrix(0.758621 0 0 0.761488 286.759 57)">_</text><text font-family="Arial,Arial_MSFontService,sans-serif" font-weight="400" font-size="11" transform="matrix(0.758621 0 0 0.761488 291.31 57)">DB</text><path d="M124.11 303.145C124.11 297.076 149.297 297.076 149.297 297.076 149.297 297.076 174.483 297.076 174.483 303.145L174.483 329.981C174.483 336.05 149.297 336.05 149.297 336.05 149.297 336.05 124.11 336.05 124.11 329.981L124.11 303.145" stroke="#A80036" stroke-width="0.606897" fill="#FEFECE" transform="scale(1 1.00378)"/><path d="M124.11 303.145C124.11 309.214 149.297 309.214 149.297 309.214 149.297 309.214 174.483 309.214 174.483 303.145" stroke="#A80036" stroke-width="0.606897" fill="none" transform="scale(1 1.00378)"/><text font-family="Arial,Arial_MSFontService,sans-serif" font-style="italic" font-weight="400" font-size="11" transform="matrix(0.758621 0 0 0.761488 135.641 322)">«local»</text><text font-family="Arial,Arial_MSFontService,sans-serif" font-weight="400" font-size="11" transform="matrix(0.758621 0 0 0.761488 130.179 332)">Users</text><text font-family="Arial,Arial_MSFontService,sans-serif" font-weight="400" font-size="11" transform="matrix(0.758621 0 0 0.761488 152.179 332)">_</text><text font-family="Arial,Arial_MSFontService,sans-serif" font-weight="400" font-size="11" transform="matrix(0.758621 0 0 0.761488 156.731 332)">DB</text><path d="M121.665 80.9297C112.852 95.2039 103.591 111.906 97.1034 128.055 75.0488 182.973 62.6196 251.595 57.0361 288.822" stroke="#A80036" stroke-width="0.606897" fill="none" transform="scale(1 1.00378)"/><text font-family="Arial,Arial_MSFontService,sans-serif" font-weight="400" font-size="10" transform="matrix(0.758621 0 0 0.761488 72.2207 221)">http</text><text font-family="Arial,Arial_MSFontService,sans-serif" font-weight="400" font-size="10" transform="matrix(0.758621 0 0 0.761488 85.8759 221)">/</text><text font-family="Arial,Arial_MSFontService,sans-serif" font-weight="400" font-size="10" transform="matrix(0.758621 0 0 0.761488 88.1517 221)">s</text><path d="M237.958 288.731C235.318 274.457 231.834 256.693 228.193 240.938 216.486 190.323 218.028 175.927 197.848 128.055 191.057 111.936 181.681 95.1735 172.856 80.8386" stroke="#A80036" stroke-width="0.606897" fill="none" transform="scale(1 1.00378)"/><text font-family="Arial,Arial_MSFontService,sans-serif" font-weight="400" font-size="10" transform="matrix(0.758621 0 0 0.761488 224.552 221)">http</text><text font-family="Arial,Arial_MSFontService,sans-serif" font-weight="400" font-size="10" transform="matrix(0.758621 0 0 0.761488 238.207 221)">/</text><text font-family="Arial,Arial_MSFontService,sans-serif" font-weight="400" font-size="10" transform="matrix(0.758621 0 0 0.761488 240.483 221)">s</text><path d="M127.873 193.624C110.746 221.742 86.1672 262.094 70.0055 288.64" stroke="#A80036" stroke-width="0.606897" fill="none" transform="scale(1 1.00378)"/><text font-family="Arial,Arial_MSFontService,sans-serif" font-weight="400" font-size="10" transform="matrix(0.758621 0 0 0.761488 99.531 251)">http</text><text font-family="Arial,Arial_MSFontService,sans-serif" font-weight="400" font-size="10" transform="matrix(0.758621 0 0 0.761488 113.186 251)">/</text><text font-family="Arial,Arial_MSFontService,sans-serif" font-weight="400" font-size="10" transform="matrix(0.758621 0 0 0.761488 115.462 251)">s</text><path d="M167.334 193.624C184.679 221.742 209.574 262.094 225.948 288.64" stroke="#A80036" stroke-width="0.606897" fill="none" transform="scale(1 1.00378)"/><text font-family="Arial,Arial_MSFontService,sans-serif" font-weight="400" font-size="10" transform="matrix(0.758621 0 0 0.761488 203.31 251)">http</text><text font-family="Arial,Arial_MSFontService,sans-serif" font-weight="400" font-size="10" transform="matrix(0.758621 0 0 0.761488 216.966 251)">/</text><text font-family="Arial,Arial_MSFontService,sans-serif" font-weight="400" font-size="10" transform="matrix(0.758621 0 0 0.761488 219.241 251)">s</text><path d="M147.476 80.7961C147.476 95.9746 147.476 113.308 147.476 127.903" stroke="#A80036" stroke-width="0.606897" fill="none" transform="scale(1 1.00378)"/><text font-family="Arial,Arial_MSFontService,sans-serif" font-weight="400" font-size="10" transform="matrix(0.758621 0 0 0.761488 148.083 108)">http</text><text font-family="Arial,Arial_MSFontService,sans-serif" font-weight="400" font-size="10" transform="matrix(0.758621 0 0 0.761488 161.738 108)">/</text><text font-family="Arial,Arial_MSFontService,sans-serif" font-weight="400" font-size="10" transform="matrix(0.758621 0 0 0.761488 164.014 108)">s</text><path d="M102.663 316.497C109.769 316.497 116.87 316.497 123.977 316.497" stroke="#A80036" stroke-width="0.606897" fill="none" transform="scale(1 1.00378)"/><path d="M289.55 316.497C296.566 316.497 303.582 316.497 310.604 316.497" stroke="#A80036" stroke-width="0.606897" fill="none" transform="scale(1 1.00378)"/><path d="M209.555 42.4828C216.559 42.4828 223.562 42.4828 230.566 42.4828" stroke="#A80036" stroke-width="0.606897" fill="none" transform="scale(1 1.00378)"/></g></svg>